PathFileType	4	(X/Y/Z)	../Python\running\Running08\task.trc
DataRate	CameraRate	NumFrames	NumMarkers	Units	OrigDataRate	OrigDataStartFrame	OrigNumFrames
200.000000	200.000000	7	30	mm	200.000000	153	204
Frame#	Time	C7			RBAK			CLAV			STRN			RASI			RPSI			LASI			PE01			RTH2			RTH3			RTB2			RD5M			RTOE			LTH3			LTB2			LTB3			LHEE			LTOE			LD5M			RTH1			RHEE			LPSI			PE02			RTB3			RTB1			PE03			T10			LTH2			LTH1			LTB1			
		X1	Y1	Z1	X2	Y2	Z2	X3	Y3	Z3	X4	Y4	Z4	X5	Y5	Z5	X6	Y6	Z6	X7	Y7	Z7	X8	Y8	Z8	X9	Y9	Z9	X10	Y10	Z10	X11	Y11	Z11	X12	Y12	Z12	X13	Y13	Z13	X14	Y14	Z14	X15	Y15	Z15	X16	Y16	Z16	X17	Y17	Z17	X18	Y18	Z18	X19	Y19	Z19	X20	Y20	Z20	X21	Y21	Z21	X22	Y22	Z22	X23	Y23	Z23	X24	Y24	Z24	X25	Y25	Z25	X26	Y26	Z26	X27	Y27	Z27	X28	Y28	Z28	X29	Y29	Z29	X30	Y30	Z30	

154	0.765	703.989196777344	1360.359375	156.3186645507813	689.956237792969	1282.257934570313	288.9493103027345	827.3020629882817	1269.496337890625	134.1709594726563	871.3504028320317	1076.465209960938	147.4025268554688	803.073120117188	864.4286499023442	312.9564514160157	626.9628906250002	951.5036010742192	243.8580169677736	824.3767089843755	880.1380004882817	90.88021087646487	645.9034423828127	979.912475585938	204.0254211425782	595.884216308594	540.784118652344	299.7103881835939	644.2723388671877	577.3565063476565	311.4371032714845	419.2478027343752	336.115692138672	279.401824951172	312.5338439941407	53.9752006530762	254.5634765625001	341.514373779297	40.19092559814455	204.7039337158204	897.0642700195317	641.8090820312502	49.96678161621097	931.6019897460942	248.2680664062501	62.75180816650393	965.884887695313	284.2441406250001	66.32525634765628	925.3482055664067	74.32395935058597	116.4915390014649	1106.932861328125	69.0998458862305	115.7219314575196	1075.486938476563	53.4827690124512	66.04329681396487	613.1068115234377	615.8857421875002	319.529998779297	278.0092163085939	199.4514923095704	188.5729217529297	628.6514892578127	947.714965820313	157.9629974365235	605.341247558594	927.9243774414067	215.4672851562501	427.9305725097659	287.1072082519532	271.2441711425782	479.7406005859377	347.0504760742189	280.0985717773439	614.281677246094	933.424194335938	166.2342071533204	660.3679199218752	1075.031494140625	206.2635192871095	847.422973632813	581.1195068359377	62.97773742675784	847.5349731445317	640.533142089844	46.59459686279298	922.4821777343755	326.7937316894532	54.58511734008792	
155	0.77	719.7588500976565	1362.017822265625	155.1825408935547	707.2412719726565	1285.011352539063	288.5689086914064	842.7504272460942	1271.65966796875	132.3047485351563	887.5585937500005	1079.435668945313	146.3966369628907	820.2315063476567	866.0154418945317	313.0637512207032	644.7279052734377	954.593383789063	244.9381256103517	841.3156738281255	883.1447143554692	91.76856994628909	663.474548339844	982.668823242188	205.1038513183595	609.5979003906252	544.2192382812502	299.5310058593751	658.1104736328127	580.3452148437502	312.1591186523439	431.7277526855471	340.8662414550782	278.4738769531251	319.7447509765626	59.72285079956058	253.7186126708986	348.4536437988282	44.06494522094728	204.1122131347657	912.9819946289067	643.3726806640627	50.34582138061526	954.495971679688	248.6425170898439	62.99469375610354	987.5219116210942	285.9161682128907	66.069938659668	954.8337402343755	76.01996612548831	117.0172729492188	1137.001831054688	73.06143951416018	117.4821243286133	1105.701904296875	55.45985412597659	68.1813659667969	627.3037719726565	619.2237548828127	319.0978393554689	290.5076293945314	206.5636749267579	187.3042602539063	645.8919677734377	950.6720581054692	158.9591217041016	622.882263183594	930.733764648438	216.2678070068361	439.9940490722659	291.6726989746095	270.903289794922	492.3609008789065	351.1569824218751	279.856414794922	631.726989746094	936.5303344726567	167.0521240234376	676.7134399414065	1077.28857421875	207.415252685547	862.5498657226567	583.0779418945315	62.51708602905276	863.4501953125005	642.5841064453127	46.54294967651369	942.2922363281255	326.7809143066407	54.69429397583011	
156	0.775	735.5823364257815	1363.439697265625	154.0463409423829	724.4564208984377	1287.480102539063	288.1525268554689	858.249633789063	1273.529052734375	130.5281524658204	903.749877929688	1082.203979492188	145.4561462402344	837.328735351563	867.458374023438	313.108123779297	662.421081542969	957.4929199218755	245.9510498046876	858.162231445313	885.8395385742192	92.58037567138675	680.913024902344	985.255981445313	206.0748596191407	623.992858886719	547.024353027344	299.4158020019532	672.511657714844	582.8752441406252	312.9121398925782	444.8168029785159	345.1826171875001	277.5635986328126	327.6353149414064	65.92378234863284	252.9324340820314	356.1758117675782	48.44449996948245	203.5935974121095	928.8649291992192	644.5893554687502	50.40728759765628	976.6339721679692	249.1290130615236	63.272819519043	1008.481323242188	287.5469970703126	65.82241821289065	983.0278320312505	77.90496826171878	117.569808959961	1165.770751953125	77.18006134033206	119.1371612548829	1134.58447265625	57.52476501464847	70.33953094482425	641.9314575195315	622.002380371094	318.7191772460939	302.7988891601564	213.5028228759767	185.888412475586	663.0422363281252	953.405883789063	159.8834228515626	640.3906250000002	933.3451538085942	217.0379486083986	452.5031738281252	295.8345642089845	270.352264404297	505.6125488281252	354.6484680175782	279.4934082031251	649.1018066406252	939.3828125000005	167.8314361572266	692.9879150390627	1079.3447265625	208.3790283203126	877.7368774414067	584.7276611328127	62.02910614013675	879.3237304687505	644.269714355469	46.32539749145509	961.6062011718755	326.8188781738282	54.86077117919925	
157	0.78	751.4580078125002	1364.624389648438	152.9107055664063	741.5921630859377	1289.662231445313	287.7001037597657	873.8019409179692	1275.106079101563	128.8423614501954	919.9169921875005	1084.756713867188	144.5830535888672	854.365600585938	868.7621459960942	313.0941162109376	680.024841308594	960.164428710938	246.8882141113282	874.9114379882817	888.2150268554692	93.30249786376956	698.2009277343752	987.6476440429692	206.9333801269532	639.131286621094	549.1436157226565	299.360565185547	687.5557861328127	584.893981933594	313.6360168457032	458.5073547363284	349.0642700195314	276.6817932128907	336.1653137207032	72.51248931884768	252.2199554443361	364.6195678710939	53.28466415405276	203.1743621826173	944.7290039062505	645.456726074219	50.14825439453128	998.0137329101567	249.6963958740236	63.57056808471683	1028.77783203125	289.104217529297	65.59997558593753	1009.841369628907	79.88437652587893	118.1474990844727	1193.1220703125	81.2903747558594	120.669776916504	1162.024047851563	59.5790939331055	72.48570251464847	657.0623779296877	624.1684570312502	318.401092529297	314.9361572265626	220.2806549072267	184.2915954589844	680.088562011719	955.8865356445317	160.7304687500001	657.8479614257815	935.7291870117192	217.7756500244142	465.4621582031252	299.5973205566407	269.5916137695314	519.483825683594	357.5337524414064	279.0049743652345	666.3912353515627	941.9494628906255	168.5692749023438	709.187683105469	1081.191772460938	209.1549530029298	893.0029907226567	586.0600585937502	61.52577590942386	895.167114257813	645.582214355469	45.95217514038087	980.4567260742192	326.907196044922	55.07062149047854	
158	0.785	767.383483886719	1365.573608398438	151.7762451171876	758.6409301757815	1291.560180664063	287.2113342285157	889.4076538085942	1276.395874023438	127.2481994628907	936.0524902343755	1087.080322265625	143.7792358398438	871.3446655273442	869.9321289062505	313.0283203125001	697.5228271484377	962.572143554688	247.7404327392579	891.5614624023442	890.2686157226567	93.9247970581055	715.3259277343752	989.8161621093755	207.6747436523439	655.0472412109377	550.5458984375002	299.3653259277345	703.299255371094	586.3645629882815	314.2773742675782	472.7886657714846	352.5227050781251	275.8368530273439	345.2955017089845	79.41348266601565	251.5872802734376	373.7187500000001	58.52593231201175	202.8742523193361	960.5900268554692	645.975524902344	49.58032226562503	1018.639282226563	250.3075561523439	63.87255477905276	1048.431396484375	290.5516662597657	65.41873168945315	1035.201171875	81.86199951171878	118.7475509643555	1218.956176757813	85.21524810791018	122.0736541748047	1187.927124023438	61.52173233032229	74.58801269531253	672.753356933594	625.6884765625002	318.1536865234376	327.0105590820314	226.9097747802736	182.4977722167969	697.0206298828127	958.0846557617192	161.4949493408204	675.2361450195315	937.8568725585942	218.4786071777345	478.8782348632815	302.9758605957032	268.6365051269532	533.9572753906252	359.8395996093751	278.3999633789064	683.5825195312502	944.199584960938	169.2623901367188	725.3106689453127	1082.823486328125	209.7467498779298	908.3601684570317	587.0687255859377	61.01786804199222	910.994018554688	646.519714355469	45.43965530395509	998.878051757813	327.039276123047	55.30669021606448	
159	0.79	783.3561401367192	1366.290649414063	150.6436309814454	775.5973510742192	1293.180053710938	286.6858215332032	905.0652465820317	1277.406372070313	125.7462844848633	952.1494750976567	1089.160400390625	143.0461120605469	888.2698364257817	870.9733886718755	312.9189758300782	714.900329589844	964.6832885742192	248.498504638672	908.113403320313	892.0015258789067	94.44019317626956	732.2813110351565	991.732788085938	208.2951507568361	671.7445068359377	551.2261962890627	299.4333801269532	719.7695312500002	587.268005371094	314.7955017089845	487.6465454101565	355.5799560546876	275.0347290039064	354.9927368164064	86.5453796386719	251.0316619873048	383.4119873046876	64.09607696533206	202.7031555175782	976.4629516601567	646.150817871094	48.72964477539065	1038.517822265625	250.9202880859376	64.16543579101565	1067.4638671875	291.8499755859376	65.29243469238284	1059.051635742188	83.74368286132815	119.3649444580079	1243.195434570313	88.77481842041018	123.3529510498047	1212.220703125	63.2482833862305	76.61722564697268	689.0408935546877	626.5506591796877	317.9893188476564	339.1381835937501	233.4017181396486	180.5108184814454	713.8318481445315	959.9716796875005	162.1721801757813	692.5386352539065	939.699829101563	219.1444396972657	492.7586364746096	305.993865966797	267.516082763672	549.0098876953127	361.6074523925782	277.7002563476564	700.6655273437502	946.1042480468755	169.9073638916016	741.3562622070315	1084.234375	210.1616363525392	923.814819335938	587.7500610351565	60.51591491699222	926.8197631835942	647.0867309570315	44.80932235717775	1016.9013671875	327.2018432617189	55.55068206787112	
160	0.795	799.3726196289067	1366.779541015625	149.513656616211	792.4584350585942	1294.53125	286.1232299804689	920.7717285156255	1278.147583007813	124.3370056152344	968.2016601562505	1090.98193359375	142.3844909667969	905.1459960937505	871.8899536132817	312.7752380371095	732.1444091796877	966.4687500000005	249.1539459228517	924.570922851563	893.417846679688	94.84455108642581	749.0659790039065	993.368530273438	208.7921447753907	689.1973266601565	551.2053833007815	299.5701599121095	736.9631347656252	587.6037597656252	315.1672363281251	503.063659667969	358.2666625976564	274.2794494628907	365.2340393066407	93.82459259033206	250.5431671142579	393.6511535644534	69.91339111328128	202.658905029297	992.3610229492192	645.9929199218752	47.63663864135744	1057.656005859375	251.4884033203126	64.43976593017581	1085.895385742188	292.9572753906251	65.23136901855472	1081.356323242188	85.44094085693362	119.9926071166993	1265.78759765625	91.79518890380862	124.5197677612305	1234.854370117188	64.650016784668	78.54932403564456	705.9383544921877	626.7641601562502	317.9214172363282	351.4462890625001	239.7644195556642	178.3532409667969	730.518737792969	961.5208129882817	162.7586364746094	709.741149902344	941.2308959960942	219.7707977294923	507.1084289550784	308.681365966797	266.2709045410157	564.6136474609377	362.8895263671876	276.9387512207032	717.6326293945315	947.6372070312505	170.5010070800782	757.3256835937502	1085.420166015625	210.4100494384767	939.3693847656255	588.104187011719	60.03191375732425	942.6611328125005	647.2946777343752	44.08683013916017	1034.550903320313	327.3745117187501	55.78578567504886	
